<mxfile host="app.diagrams.net" modified="2021-12-17T12:08:00.361Z" agent="5.0 (Windows NT 10.0; Win64; x64) AppleWebKit/537.36 (KHTML, like Gecko) Chrome/96.0.4664.110 Safari/537.36" etag="LcOLaWqQGhnD50RTWJWG" version="15.9.6" type="github">
  <diagram id="M0IOXi-CXH-aR9BiblOt" name="第 1 页">
    <mxGraphModel dx="1185" dy="657" grid="1" gridSize="10" guides="1" tooltips="1" connect="1" arrows="1" fold="1" page="1" pageScale="1" pageWidth="827" pageHeight="1169" math="0" shadow="0">
      <root>
        <mxCell id="0" />
        <mxCell id="1" parent="0" />
        <mxCell id="SEXucr9hh-r1ybUsyOzy-1" value="«interface»&lt;br&gt;&lt;font size=&quot;1&quot;&gt;&lt;b&gt;EventLoopGroup&lt;/b&gt;&lt;/font&gt;" style="html=1;" vertex="1" parent="1">
          <mxGeometry x="150" y="200" width="120" height="50" as="geometry" />
        </mxCell>
        <mxCell id="SEXucr9hh-r1ybUsyOzy-2" value="«interface»&lt;br&gt;&lt;font size=&quot;1&quot;&gt;&lt;b&gt;EventLoop&lt;/b&gt;&lt;/font&gt;" style="html=1;" vertex="1" parent="1">
          <mxGeometry x="440" y="200" width="110" height="50" as="geometry" />
        </mxCell>
        <mxCell id="SEXucr9hh-r1ybUsyOzy-4" value="包含一个或多个" style="endArrow=open;html=1;endSize=12;startArrow=diamondThin;startSize=14;startFill=0;edgeStyle=orthogonalEdgeStyle;rounded=0;entryX=0;entryY=0.5;entryDx=0;entryDy=0;exitX=1;exitY=0.5;exitDx=0;exitDy=0;" edge="1" parent="1" source="SEXucr9hh-r1ybUsyOzy-1" target="SEXucr9hh-r1ybUsyOzy-2">
          <mxGeometry relative="1" as="geometry">
            <mxPoint x="270" y="220" as="sourcePoint" />
            <mxPoint x="400" y="220" as="targetPoint" />
          </mxGeometry>
        </mxCell>
        <mxCell id="SEXucr9hh-r1ybUsyOzy-5" value="1" style="edgeLabel;resizable=0;html=1;align=left;verticalAlign=top;" connectable="0" vertex="1" parent="SEXucr9hh-r1ybUsyOzy-4">
          <mxGeometry x="-1" relative="1" as="geometry" />
        </mxCell>
        <mxCell id="SEXucr9hh-r1ybUsyOzy-6" value="n" style="edgeLabel;resizable=0;html=1;align=right;verticalAlign=top;" connectable="0" vertex="1" parent="SEXucr9hh-r1ybUsyOzy-4">
          <mxGeometry x="1" relative="1" as="geometry">
            <mxPoint y="5" as="offset" />
          </mxGeometry>
        </mxCell>
        <mxCell id="SEXucr9hh-r1ybUsyOzy-8" value="&lt;p style=&quot;margin: 0px ; margin-top: 4px ; text-align: center&quot;&gt;&lt;b&gt;Thread&lt;/b&gt;&lt;/p&gt;&lt;hr size=&quot;1&quot;&gt;&lt;div style=&quot;height: 2px&quot;&gt;&lt;/div&gt;&lt;hr size=&quot;1&quot;&gt;&lt;div style=&quot;height: 2px&quot;&gt;&lt;/div&gt;" style="verticalAlign=top;align=left;overflow=fill;fontSize=12;fontFamily=Helvetica;html=1;" vertex="1" parent="1">
          <mxGeometry x="425" y="330" width="140" height="60" as="geometry" />
        </mxCell>
        <mxCell id="SEXucr9hh-r1ybUsyOzy-13" value="&lt;span style=&quot;font-size: 12px ; background-color: rgb(248 , 249 , 250)&quot;&gt;在生命周期内只和一个Thread绑定&lt;/span&gt;" style="endArrow=open;endSize=12;dashed=1;rounded=0;exitX=0.5;exitY=1;exitDx=0;exitDy=0;entryX=0.5;entryY=0;entryDx=0;entryDy=0;html=1;" edge="1" parent="1" source="SEXucr9hh-r1ybUsyOzy-2" target="SEXucr9hh-r1ybUsyOzy-8">
          <mxGeometry width="160" relative="1" as="geometry">
            <mxPoint x="230" y="340" as="sourcePoint" />
            <mxPoint x="500" y="300" as="targetPoint" />
          </mxGeometry>
        </mxCell>
      </root>
    </mxGraphModel>
  </diagram>
</mxfile>
